<?xml version="1.0" encoding="UTF-8" standalone="no"?>
<!DOCTYPE svg PUBLIC "-//W3C//DTD SVG 1.1//EN" "http://www.w3.org/Graphics/SVG/1.1/DTD/svg11.dtd">
<svg width="100%" height="100%" viewBox="0 0 256 256" version="1.1" xmlns="http://www.w3.org/2000/svg" xmlns:xlink="http://www.w3.org/1999/xlink" xml:space="preserve" xmlns:serif="http://www.serif.com/" style="fill-rule:evenodd;clip-rule:evenodd;stroke-linejoin:round;stroke-miterlimit:2;">
    <g id="settings" transform="matrix(0.544681,0,0,0.547009,128,128)">
        <g transform="matrix(1,0,0,1,-235,-234)">
            <g transform="matrix(1,0,0,1,-21,-26)">
                <g id="S8---S8--icons" serif:id="S8-/-S8+-icons">
                    <g id="icons">
                        <g id="settings1" serif:id="settings">
                            <g transform="matrix(1,0,0,1,32,33)">
                                <path id="path-1" d="M9.635,132.808C24.782,59.782 71.388,19.109 144.085,6.822C197.825,-2.259 251.585,-2.374 305.235,7.077C380.087,20.262 425.085,63.307 439.42,137.437C450.495,194.727 450.669,252.628 439.246,309.864C423.922,382.384 376.114,427.149 303.685,439.391C249.945,448.471 196.185,448.586 142.535,439.136C67.683,425.95 22.485,380.756 8.151,306.627C-3.489,248.959 -2.369,190.692 9.635,132.807L9.635,132.808Z" style="fill:white;stroke:black;stroke-width:5px;"/>
                                <path id="path-11" serif:id="path-1" d="M9.635,132.808C24.782,59.782 71.388,19.109 144.085,6.822C197.825,-2.259 251.585,-2.374 305.235,7.077C380.087,20.262 425.085,63.307 439.42,137.437C450.495,194.727 450.669,252.628 439.246,309.864C423.922,382.384 376.114,427.149 303.685,439.391C249.945,448.471 196.185,448.586 142.535,439.136C67.683,425.95 22.485,380.756 8.151,306.627C-3.489,248.959 -2.369,190.692 9.635,132.807L9.635,132.808Z" style="fill:white;stroke:black;stroke-width:5px;"/>
                            </g>
                            <g transform="matrix(1.48125,0,0,1.38259,-76.1975,-51.4181)">
                                <path d="M130.74,238.005C130.739,240.513 129.687,242.908 127.84,244.605L102.162,268.195L88.662,253.437L108.054,235.7C109.764,234.136 110.739,231.923 110.74,229.606L110.74,214.246C110.74,211.809 109.661,209.492 107.796,207.923L85.366,189.065C79.615,184.23 78.321,175.792 82.358,169.455L113.004,121.341C117.181,114.784 125.666,112.486 132.582,116.04L154.056,127.075C156.154,128.152 158.615,128.282 160.814,127.431L174.688,122.061C177.632,120.922 179.675,118.191 179.938,115.045L181.965,90.8C182.615,83 189.138,77 196.967,77L253.351,77.004C261.127,77.004 267.623,82.924 268.341,90.667L270.569,114.704C270.787,117.052 272,119.198 273.899,120.596L285.291,128.977C287.523,130.62 290.438,131.033 293.039,130.076L320.124,120.111L327.03,138.881L290.173,152.441C287.33,153.487 284.142,153.023 281.715,151.211L255.817,131.865C253.338,130.02 251.754,127.207 251.46,124.131L248.868,97L201.716,97L198.893,127.819C198.471,132.429 195.399,136.393 191.04,137.953L160.914,148.732C157.822,149.838 154.407,149.619 151.482,148.126L127.465,135.868L102.133,175.638L126.948,197.049C129.355,199.126 130.74,202.152 130.74,205.331L130.74,238.005ZM361.255,252.968C367.477,257.631 369.123,266.265 365.055,272.892L335.551,320.942C331.455,327.612 322.93,330.03 315.941,326.503L294.22,315.543C291.402,314.121 288.005,314.433 285.494,316.345L273.657,325.357C271.781,326.785 270.604,328.951 270.425,331.302L268.591,355.376C268,363.129 261.601,369.157 253.827,369.284L196.79,370.222C189.278,370.345 182.766,364.826 181.654,357.396L177.321,328.414C176.961,326.003 175.552,323.872 173.475,322.596L160.387,314.559C158.412,313.347 156.015,313.019 153.787,313.657L128.526,320.901L123.014,301.675L156.553,292.137C158.965,291.451 161.558,291.808 163.695,293.12L191.539,310.22C194.247,311.884 196.101,314.648 196.611,317.785L201.871,350.135L249.018,349.362L251.141,322.482C251.399,319.208 252.999,316.181 255.56,314.125L280.51,294.095C284.12,291.196 289.106,290.653 293.256,292.706L320.994,306.428L345.669,266.248L323.905,249.841C321.438,247.98 319.87,245.159 319.595,242.081L316.662,209.888C316.388,206.871 317.661,203.913 320.04,202.038L350.883,177.725L363.263,193.432L340.598,211.299C338.421,213.014 337.248,215.715 337.48,218.476L338.66,232.57C338.858,234.919 340.052,237.075 341.938,238.49L361.255,252.968Z"/>
                            </g>
                        </g>
                    </g>
                </g>
            </g>
        </g>
    </g>
    <g id="discord" transform="matrix(2.61937,0,0,2.61937,127.419,125.482)">
        <g transform="matrix(1,0,0,1,-25,-25)">
            <path id="surface1" d="M41.625,10.77C37.645,7.566 31.348,7.023 31.078,7.004C30.659,6.969 30.261,7.205 30.09,7.59C29.97,7.86 29.868,8.138 29.785,8.422C32.418,8.867 35.652,9.762 38.578,11.578C38.872,11.76 39.051,12.082 39.051,12.428C39.051,12.977 38.599,13.428 38.051,13.428C37.864,13.428 37.681,13.376 37.523,13.278C32.493,10.155 26.211,10 25,10C23.79,10 17.504,10.156 12.477,13.277C12.319,13.375 12.136,13.427 11.95,13.427C11.401,13.427 10.949,12.976 10.949,12.427C10.949,12.081 11.128,11.759 11.422,11.577C14.348,9.766 17.582,8.867 20.215,8.426C20.063,7.93 19.925,7.617 19.915,7.59C19.745,7.203 19.343,6.966 18.922,7.004C18.652,7.024 12.355,7.566 8.32,10.813C6.215,12.761 2,24.152 2,34C2,34.176 2.047,34.344 2.133,34.496C5.039,39.606 12.973,40.941 14.781,41L14.812,41C15.132,41.001 15.433,40.848 15.622,40.59L17.449,38.074C12.516,36.801 9.996,34.637 9.852,34.508C9.637,34.318 9.514,34.045 9.514,33.758C9.514,33.209 9.965,32.758 10.514,32.758C10.758,32.758 10.993,32.847 11.176,33.008C11.234,33.063 15.875,37 25,37C34.14,37 38.781,33.047 38.828,33.008C39.241,32.647 39.877,32.69 40.238,33.102C40.398,33.284 40.486,33.518 40.486,33.76C40.486,34.046 40.363,34.319 40.148,34.508C40.004,34.637 37.484,36.801 32.551,38.074L34.379,40.59C34.567,40.848 34.869,41.001 35.188,41L35.218,41C37.028,40.941 44.961,39.605 47.868,34.496C47.953,34.344 48,34.176 48,34C48,24.152 43.785,12.762 41.625,10.77ZM18.5,30C16.566,30 15,28.21 15,26C15,23.79 16.566,22 18.5,22C20.434,22 22,23.79 22,26C22,28.21 20.434,30 18.5,30ZM31.5,30C29.566,30 28,28.21 28,26C28,23.79 29.566,22 31.5,22C33.434,22 35,23.79 35,26C35,28.21 33.434,30 31.5,30Z" style="fill-rule:nonzero;"/>
        </g>
    </g>
</svg>
